<svg viewBox="0 0 147.88 30" xmlns="http://www.w3.org/2000/svg"><path d="m22.58 10.4c-.95.39-2.03-.06-2.41-1-.39-.94.06-2.03 1.01-2.41.93-.38 2.01.07 2.4 1.01s-.06 2.01-.99 2.4"/><path d="m16.71 17.06c-.95.39-2.03-.06-2.41-1-.39-.94.06-2.03 1.01-2.41.93-.38 2.01.07 2.4 1.01s-.06 2.01-.99 2.4"/><path d="m27.52 13.35c-.95.39-2.03-.06-2.41-1-.39-.94.06-2.03 1.01-2.41.93-.38 2.01.07 2.4 1.01s-.06 2.01-.99 2.4"/><path d="m30.79 18.21c-.95.39-2.03-.06-2.41-.99-.39-.94.06-2.03 1.01-2.41.93-.38 2.01.07 2.4 1.01s-.06 2.01-.99 2.4"/><path d="m16.98 4.68s2.33 1.22 2.33 1.22v-3.44l-2.33.74c-.06-.09-.14-.17-.23-.24s.94-2.96.94-2.96h-1.68s-1.68 0-1.68 0l.94 2.95c-.08.07-.16.15-.23.24s-2.33-.73-2.33-.73v3.44l2.33-1.23c.07.1.15.18.24.24l-1.34 4.04s0 .01 0 .02 0 0 0 0c-.06.2-.1.42-.1.64 0 1.09.81 2 1.86 2.15h.05c.09.01.18.02.27.02.09 0 .18 0 .27-.02h.05c1.05-.16 1.86-1.06 1.86-2.15 0-.22-.03-.44-.1-.64s0 0 0 0 0-.01 0-.02l-1.34-4.04c.09-.07.17-.15.24-.24"/><path d="m9.39 10.4c.95.39 2.03-.06 2.41-1 .39-.94-.06-2.03-1.01-2.41-.93-.38-2.01.07-2.4 1.01s.06 2.01.99 2.4"/><path d="m4.45 13.35c.95.39 2.03-.06 2.41-1 .39-.94-.06-2.03-1.01-2.41-.93-.38-2.01.07-2.4 1.01s.06 2.01.99 2.4"/><path d="m1.18 18.21c.95.39 2.03-.06 2.41-.99.39-.94-.06-2.03-1.01-2.41-.93-.38-2.01.07-2.4 1.01s.06 2.01.99 2.4"/><path d="m16 29.17c4.42 0 8.6.3 12.33.83 1.06-4.45 2.35-7 3.67-8.81l-2.5-.89c.25 1.27.29 1.86.01 2.68-.41-.4-.8-1.15-1.11-2.28l-1.21 4.04c.74-.51 1.31-.84 1.96-.85-1.15 2.49-2.6 3.13-3.53 2.95-1.14-.21-1.67-1.23-1.49-2.09.26-1.22 1.52-1.54 2.1-.12 1.12-2.29-.78-3-2-2.32 1.88-1.88 2.09-3.54.58-5.56-2.11 1.62-2.14 3.22-1.19 5.47-1.23-1.41-3.16-.65-2.46 1.63.89-1.38 2.07-.51 1.88.8-.16 1.14-1.66 2.06-3.54 1.9-2.69-.24-2.85-2.1-2.92-3.63.66-.12 1.85.49 2.87 1.92l.37-4.28c-1.1 1.15-2.11 1.37-3.22 1.4.37-1.16 2.08-3.05 2.08-3.05h-5.35s1.7 1.9 2.08 3.05c-1.11-.04-2.12-.25-3.22-1.4l.37 4.28c1.02-1.42 2.2-2.04 2.87-1.92-.07 1.54-.23 3.39-2.92 3.63-1.88.16-3.38-.76-3.54-1.9-.19-1.31.99-2.18 1.88-.8.69-2.28-1.23-3.04-2.46-1.63.95-2.25.93-3.85-1.19-5.47-1.52 2.02-1.3 3.68.58 5.56-1.22-.68-3.13.04-2 2.32.59-1.42 1.84-1.1 2.1.12.18.86-.35 1.88-1.49 2.09-.93.17-2.38-.47-3.53-2.95.65.02 1.22.34 1.96.85l-1.21-4.04c-.31 1.13-.7 1.88-1.11 2.28-.28-.82-.24-1.41 0-2.68l-2.5.89c1.33 1.81 2.62 4.36 3.67 8.81 3.73-.53 7.91-.83 12.32-.83"/><path d="m44.38 17.57c0 .9.11 1.76.34 2.59s.57 1.56 1.03 2.2 1.04 1.15 1.76 1.53 1.56.58 2.55.58 1.74-.15 2.37-.45 1.13-.68 1.51-1.14.64-.94.79-1.47.23-1.02.23-1.46v-.21h-5.38v-3.24h9.51v11.51h-3.72v-2.46c-.26.41-.59.78-.98 1.12s-.83.62-1.32.86-1.02.43-1.6.56-1.2.21-1.85.21c-1.53 0-2.9-.28-4.09-.83s-2.19-1.32-3.01-2.3-1.44-2.12-1.86-3.43-.64-2.72-.64-4.23.24-2.91.71-4.23 1.15-2.46 2.02-3.43 1.93-1.74 3.16-2.3 2.62-.84 4.15-.84c1 0 1.94.11 2.83.34s1.71.56 2.45.98 1.39.94 1.96 1.54 1.03 1.27 1.38 2l-3.72 2.09c-.22-.45-.49-.87-.79-1.25s-.65-.72-1.05-1-.85-.5-1.35-.66-1.07-.24-1.7-.24c-.99 0-1.84.19-2.55.58s-1.3.9-1.76 1.53-.8 1.37-1.03 2.2-.34 1.7-.34 2.59v.15z"/><path d="m71.77 6.71c1.56 0 2.96.28 4.2.84s2.29 1.33 3.16 2.3 1.52 2.11 1.98 3.43.68 2.72.68 4.23-.23 2.92-.68 4.23-1.11 2.45-1.98 3.43-1.92 1.74-3.16 2.3-2.64.83-4.2.83-2.98-.28-4.21-.83-2.29-1.32-3.15-2.3-1.52-2.12-1.98-3.43-.68-2.72-.68-4.23.23-2.91.68-4.23 1.11-2.46 1.98-3.43 1.91-1.74 3.15-2.3 2.64-.84 4.21-.84zm0 17.75c.92 0 1.73-.17 2.42-.52s1.29-.83 1.77-1.44.84-1.34 1.08-2.18.37-1.76.37-2.75v-.12c0-.99-.12-1.9-.37-2.75s-.61-1.57-1.08-2.19-1.07-1.1-1.77-1.44-1.51-.52-2.42-.52-1.73.17-2.43.52-1.29.83-1.77 1.44-.83 1.35-1.08 2.19-.37 1.76-.37 2.75v.12c0 1 .12 1.91.37 2.75s.6 1.57 1.08 2.18 1.06 1.1 1.77 1.44 1.51.52 2.43.52z"/><path d="m88.75 28.01-5.93-21.01h4.76l4.06 15.79h.15l3.97-15.79h4.7l-5.93 21.01h-5.77z"/><path d="m100.45 25.64c0-.36.07-.7.21-1.02s.33-.6.58-.83.53-.43.86-.57.67-.21 1.03-.21.7.07 1.03.21.61.33.85.57.44.52.58.83.21.66.21 1.02-.07.72-.21 1.04-.33.61-.58.85-.53.43-.85.57-.66.21-1.03.21-.71-.07-1.03-.21-.61-.33-.86-.57-.44-.53-.58-.85-.21-.67-.21-1.04z"/><path d="m117.74 24.47c.62 0 1.19-.09 1.72-.27s.99-.45 1.38-.82.69-.83.92-1.39.34-1.22.34-1.98v-13.03h4.17v13.65c0 1.17-.21 2.23-.64 3.18s-1.01 1.75-1.77 2.42-1.66 1.18-2.7 1.54-2.19.54-3.42.54-2.38-.18-3.42-.54-1.95-.87-2.71-1.54c-.76-.66-1.35-1.47-1.78-2.42s-.64-2.01-.64-3.18v-13.65h4.2v13.02c0 .76.11 1.42.34 1.98s.53 1.03.92 1.39.84.64 1.38.82 1.11.27 1.72.27z"/><path d="m130.44 7.01h4.25v9.1l7.5-9.1h5.23l-7.29 8.35 7.76 12.66h-4.94l-5.55-9.42-2.71 3.03v6.39h-4.25z"/></svg>
