<svg viewBox="0 0 318.42 300" xmlns="http://www.w3.org/2000/svg"><path d="m224.67 104.97c-9.45 3.9-20.18-.56-24.03-9.9-3.87-9.32.56-20.15 10.01-24.03 9.27-3.81 20.04.74 23.89 10.09 3.85 9.3-.6 20.04-9.87 23.84"/><path d="m166.29 169.96c-9.45 3.9-20.18-.56-24.03-9.9-3.87-9.32.56-20.15 10.01-24.03 9.27-3.81 20.04.74 23.89 10.09 3.85 9.3-.6 20.04-9.87 23.84"/><path d="m273.82 134.3c-9.45 3.9-20.18-.56-24.02-9.9-3.87-9.32.56-20.15 10-24.03 9.27-3.8 20.04.74 23.9 10.1 3.85 9.3-.61 20.03-9.88 23.83"/><path d="m306.36 182.73c-9.45 3.9-20.18-.56-24.03-9.9-3.87-9.32.56-20.15 10.01-24.03 9.26-3.8 20.04.74 23.89 10.09 3.86 9.31-.6 20.04-9.87 23.84"/><path d="m168.94 46.53.05-.05 23.23 12.19v-34.23l-23.2 7.35-.07-.07c-.65-.86-1.4-1.62-2.25-2.28l-.06-.07 9.33-29.37h-16.76s-16.76 0-16.76 0l9.34 29.38-.07.07c-.84.66-1.6 1.42-2.25 2.28l-.07.07-23.19-7.35v34.23l23.23-12.19.05.05c.69.9 1.49 1.7 2.4 2.38l-13.34 40.24s-.03.1-.05.15v.04s0 0 0 0c-.62 2.01-.96 4.14-.96 6.35 0 10.89 8.04 19.87 18.49 21.41.15.02.31.05.47.07.89.12 1.79.19 2.72.19.92 0 1.82-.08 2.72-.19.15-.02.31-.05.46-.07 10.46-1.54 18.5-10.53 18.5-21.41 0-2.21-.34-4.34-.95-6.35s-.01-.05-.01-.05c-.01-.05-.03-.1-.05-.15l-13.33-40.24c.9-.68 1.71-1.48 2.4-2.38"/><path d="m93.43 104.97c9.45 3.9 20.18-.56 24.03-9.9 3.87-9.32-.56-20.15-10.01-24.03-9.27-3.81-20.04.74-23.89 10.09-3.85 9.3.6 20.04 9.87 23.84"/><path d="m44.28 134.3c9.45 3.9 20.18-.56 24.02-9.9 3.87-9.32-.56-20.15-10-24.03-9.27-3.8-20.04.74-23.9 10.1-3.85 9.3.61 20.03 9.88 23.83"/><path d="m11.74 182.73c9.45 3.9 20.18-.56 24.03-9.9 3.87-9.32-.56-20.15-10.01-24.03-9.26-3.8-20.04.74-23.89 10.09-3.86 9.31.6 20.04 9.87 23.84"/><path d="m159.18 291.72c43.97 0 85.59 2.98 122.67 8.28 10.52-44.26 23.33-69.61 36.57-87.67l-24.91-8.87c2.48 12.65 2.87 18.53.1 26.67-4.11-4.02-8-11.4-11.04-22.69l-12.06 40.19c7.34-5.05 13.01-8.32 19.48-8.48-11.49 24.75-25.84 31.12-35.14 29.4-11.35-2.08-16.57-12.21-14.81-20.8 2.62-12.17 15.1-15.34 20.93-1.19 11.15-22.75-7.77-29.84-19.95-23.11 18.7-18.66 20.84-35.24 5.75-55.31-21.04 16.08-21.29 32.01-11.82 54.41-12.28-14.06-31.4-6.51-24.49 16.2 8.86-13.72 20.59-5.09 18.74 7.94-1.56 11.35-16.55 20.52-35.21 18.9-26.75-2.43-28.34-20.88-29.01-36.16 6.57-1.22 18.42 4.88 28.51 19.06l3.72-42.63c-10.98 11.45-20.96 13.62-32.05 13.97 3.69-11.52 20.65-30.38 20.65-30.38h-53.21s16.96 18.86 20.65 30.38c-11.08-.35-21.06-2.52-32.05-13.97l3.72 42.63c10.1-14.18 21.94-20.27 28.52-19.06-.66 15.28-2.26 33.74-29.01 36.16-18.67 1.62-33.65-7.54-35.21-18.9-1.84-13.03 9.89-21.66 18.75-7.94 6.91-22.72-12.22-30.26-24.5-16.2 9.47-22.41 9.22-38.33-11.82-54.41-15.1 20.07-12.96 36.66 5.74 55.31-12.18-6.73-31.1.36-19.94 23.11 5.83-14.16 18.32-10.98 20.93 1.19 1.76 8.59-3.47 18.71-14.82 20.8-9.3 1.72-23.65-4.65-35.14-29.4 6.48.15 12.14 3.42 19.49 8.48l-12.07-40.19c-3.04 11.29-6.93 18.68-11.04 22.69-2.78-8.13-2.38-14.02.1-26.67l-24.9 8.87c13.23 18.05 26.04 43.41 36.56 87.66 37.07-5.3 78.66-8.28 122.62-8.28"/></svg>